# xmcd
#
# Track frame offsets:
#	150
#	12360
#	35526
#	48474
#	64091
#	77568
#	92687
#	105855
#	122049
#
# Disc length: 2172 seconds
#
# Revision: 1
# Processed by: cddbd v1.5.2PL0 Copyright (c) Steve Scherf et al.
# Submitted via: audiograbber 1.83.01
#
DISCID=66087a09
DTITLE=Rick'n Roll and The Crazy Cadillacs - Let The Good Times Roll
DYEAR=2006
DGENRE=Oldies
TTITLE0=Rockin' Pneumonia
TTITLE1=Glamour Girl
TTITLE2=Folsom Prison Blues
TTITLE3=Girls All Over The World
TTITLE4=Bring It On Home To Me
TTITLE5=Down The Road Apiece
TTITLE6=Choo Choo Ch' Boogie
TTITLE7=Great Balls Of Fire
TTITLE8=What'd I Say
EXTD=www.rick-and-roll.nl
EXTT0=Huey "Piano" Smith and His Clowns (1957)
EXTT1=Mike Sanchez (1997)
EXTT2=John R. cash (1956)
EXTT3=Mike Sanchez (1997)
EXTT4=Sam Cooke (1962)
EXTT5=Don Raye (1940)
EXTT6=Louis Jordan (1946)
EXTT7=Jerry Lee Lewis (1957)
EXTT8=Ray Charles (1959)
PLAYORDER=
